<?xml version="1.0" encoding="UTF-8" standalone="no"?>
<svg
   width="100%"
   height="100%"
   viewBox="0 0 114 114"
   version="1.1"
   xml:space="preserve"
   style="fill-rule:evenodd;clip-rule:evenodd;stroke-linejoin:round;stroke-miterlimit:2;"
   id="svg5"
   xmlns="http://www.w3.org/2000/svg"
   xmlns:svg="http://www.w3.org/2000/svg"><defs
   id="defs5">
        
    
            
        
                
                
            
                    
                    <clipPath
   id="_clip1">
                        <path
   d="m 246.425,63.247 c -16.299,0 -29.711,13.49 -29.711,29.884 0.002,13.24 8.751,24.974 21.387,28.684 -10.337,-4.957 -16.957,-15.523 -16.969,-27.082 0.001,-16.465 13.413,-30.012 29.711,-30.012 2.437,0.021 4.862,0.344 7.221,0.963 -3.677,-1.593 -7.636,-2.422 -11.639,-2.437 z m -10.859,24.865 c -2,-0.005 -5.011,0.525 -8.331,2.972 -5.111,3.769 -4.827,10.84 -1.939,12.036 1.249,0.517 5.12,-2.497 8.053,-1.096 3.571,1.706 12.482,6.497 13.156,6.926 0.674,0.429 1.193,0.517 1.781,0.285 8.576,-3.384 25.225,-9.293 25.225,-9.293 3.114,-0.835 2.682,-6.424 -1.82,-5.344 -2.711,0.65 -13.971,3.338 -13.971,3.338 0,0 -0.347,0.133 -0.223,0.58 0.855,3.071 -2.859,6.95 -6.619,4.988 -2.989,-1.559 -10.258,-6.181 -10.258,-6.181 -0.141,-0.076 -0.186,-0.619 0.346,-0.477 1.143,0.306 10.223,4.651 10.223,4.651 3.547,1.921 5.872,-3.215 2.839,-4.764 -1.883,-0.962 -15.964,-8.289 -15.964,-8.289 0,0 -0.943,-0.329 -2.498,-0.332 z"
   clip-rule="nonzero"
   id="path2" />
                    </clipPath>
                    
                </defs>
    <path
   d="M 54.133125,5.2427661 C 26.390108,5.2427661 3.5611408,28.2045 3.5611408,56.109219 3.5645451,78.64542 18.45648,98.618214 39.964595,104.93312 22.369677,96.495658 11.101577,78.510952 11.081151,58.836031 c 0.0017,-28.02557 22.83067,-51.0843253 50.571985,-51.0843253 4.14809,0.035745 8.275756,0.5855327 12.29108,1.6391512 C 67.685484,6.6793638 60.946752,5.2682981 54.133125,5.2427661 Z M 35.649696,47.566229 c -3.40426,-0.0085 -8.529374,0.893618 -14.180445,5.05873 -8.699587,6.415328 -8.216182,18.451089 -3.300431,20.486837 2.125961,0.880001 8.714906,-4.250219 13.707253,-1.865535 6.078307,2.903834 21.245987,11.058739 22.393223,11.788952 1.147235,0.730214 2.030641,0.880002 3.031493,0.485108 14.597467,-5.760008 42.936231,-15.817895 42.936231,-15.817895 5.30043,-1.421278 4.56511,-10.934483 -3.097878,-9.096182 -4.614475,1.106384 -23.780458,5.68171 -23.780458,5.68171 0,0 -0.59064,0.226383 -0.379575,0.987235 C 74.43443,70.50243 68.112719,77.104993 61.71271,73.765414 56.625044,71.111793 44.252261,63.244548 44.252261,63.244548 44.01226,63.115186 43.935664,62.19093 44.841198,62.432632 c 1.945534,0.520852 17.400875,7.916607 17.400875,7.916607 6.037455,3.269791 9.994907,-5.472348 4.832347,-8.108948 -3.205111,-1.637449 -27.172804,-14.108955 -27.172804,-14.108955 0,0 -1.605108,-0.560001 -4.25192,-0.565107 z"
   style="fill:#18723c;fill-opacity:1;fill-rule:nonzero;stroke:none;stroke-width:1.502;stroke-dasharray:none"
   id="path1" /><g
   clip-path="url(#_clip1)"
   id="g4"
   style="fill:#ffffff;stroke:none;stroke-width:0.882424;stroke-dasharray:none"
   transform="matrix(1.70213,0,0,1.70213,-365.31426,-102.41185)">
                        <g
   transform="translate(191.417,48.852)"
   id="g3"
   style="fill:#ffffff;stroke:none;stroke-width:0.882424;stroke-dasharray:none">
                            
                        </g>
                    </g><path
   d="m 68.890584,22.202794 c -0.362554,-0.0068 -0.721703,0.06468 -1.096172,0.212767 -14.59746,5.760007 -42.932818,15.817894 -42.932818,15.817894 -5.300433,1.421278 -4.565113,10.931078 3.097877,9.092778 4.614474,-1.106384 23.777054,-5.678306 23.777054,-5.678306 0,0 0.594043,-0.226383 0.382979,-0.987235 -1.455321,-5.227241 4.862985,-11.829804 11.262987,-8.490224 5.087667,2.65362 17.462152,10.520865 17.462152,10.520865 0.24,0.129362 0.314894,1.055321 -0.590639,0.811916 -1.945535,-0.520852 -17.397471,-7.914904 -17.397471,-7.914904 -6.037448,-3.271494 -9.998305,5.470645 -4.837447,8.107245 3.206813,1.639151 27.174506,14.108955 27.174506,14.108955 0,0 8.389799,2.912345 18.434068,-4.493623 8.70129,-6.415328 8.21618,-18.451089 3.30213,-20.485134 -2.12766,-0.881704 -8.72001,4.248516 -13.710655,1.863832 C 87.139126,31.785786 71.973141,23.630881 70.825906,22.90237 70.109309,22.444497 69.49484,22.214709 68.890584,22.202794 Z m 37.433246,34.000047 c -1.4451,25.343014 -22.46641,45.424739 -47.618785,45.489429 -24.869822,-0.0647 -45.74985,-19.697053 -47.571129,-44.728577 -0.125958,1.17447 -0.20766,2.350642 -0.248511,3.530218 0,26.476632 21.586412,48.262189 47.81964,48.262189 26.231525,0 47.817935,-21.785557 47.817935,-48.262189 -0.003,-1.431492 -0.0698,-2.864685 -0.19915,-4.29107 z"
   style="fill:#a4cc38;fill-opacity:1;fill-rule:nonzero;stroke:none;stroke-width:1.502;stroke-dasharray:none"
   id="path5" />
</svg>
