<?xml version="1.0" encoding="UTF-8" standalone="no"?>
<svg
   width="100%"
   height="100%"
   viewBox="0 0 114 114"
   version="1.1"
   xml:space="preserve"
   style="fill-rule:evenodd;clip-rule:evenodd;stroke-linejoin:round;stroke-miterlimit:2;"
   id="svg2"
   xmlns="http://www.w3.org/2000/svg"
   xmlns:svg="http://www.w3.org/2000/svg"
   xmlns:serif="http://www.serif.com/"><defs
   id="defs2" />
    <g
   transform="matrix(1.33333,0,0,1.33333,0,0)"
   id="g2">
        <g
   id="Layer-1"
   serif:id="Layer 1"
   transform="matrix(2.83465,0,0,2.83465,0,0)">
            <g
   id="path1-0"
   transform="matrix(0.264583,0,0,0.264583,-50.6458,-12.9254)">
                <path
   d="M246.425,63.247C230.126,63.247 216.714,76.737 216.714,93.131C216.716,106.371 225.465,118.105 238.101,121.815C227.764,116.858 221.144,106.292 221.132,94.733C221.133,78.268 234.545,64.721 250.843,64.721C253.28,64.742 255.705,65.065 258.064,65.684C254.387,64.091 250.428,63.262 246.425,63.247ZM235.566,88.112C233.566,88.107 230.555,88.637 227.235,91.084C222.124,94.853 222.408,101.924 225.296,103.12C226.545,103.637 230.416,100.623 233.349,102.024C236.92,103.73 245.831,108.521 246.505,108.95C247.179,109.379 247.698,109.467 248.286,109.235C256.862,105.851 273.511,99.942 273.511,99.942C276.625,99.107 276.193,93.518 271.691,94.598C268.98,95.248 257.72,97.936 257.72,97.936C257.72,97.936 257.373,98.069 257.497,98.516C258.352,101.587 254.638,105.466 250.878,103.504C247.889,101.945 240.62,97.323 240.62,97.323C240.479,97.247 240.434,96.704 240.966,96.846C242.109,97.152 251.189,101.497 251.189,101.497C254.736,103.418 257.061,98.282 254.028,96.733C252.145,95.771 238.064,88.444 238.064,88.444C238.064,88.444 237.121,88.115 235.566,88.112ZM294.191,129C293.355,129 292.581,129.133 291.862,129.391C291.144,129.641 290.511,130 289.972,130.469C289.441,130.93 289.019,131.485 288.706,132.141C288.401,132.79 288.253,133.497 288.253,134.266C288.253,135.071 288.394,135.766 288.675,136.36C288.956,136.946 289.323,137.454 289.784,137.891C290.241,138.329 290.776,138.704 291.394,139.016C292.007,139.321 292.644,139.594 293.3,139.844C294.058,140.118 294.679,140.36 295.159,140.579C295.648,140.797 296.026,141.012 296.3,141.219C296.569,141.43 296.757,141.649 296.862,141.875C296.964,142.106 297.019,142.36 297.019,142.641C297.019,142.922 296.956,143.18 296.831,143.407C296.706,143.625 296.534,143.821 296.316,143.985C296.097,144.153 295.835,144.29 295.534,144.391C295.241,144.485 294.929,144.532 294.597,144.532C293.784,144.532 293.026,144.407 292.331,144.157C291.632,143.907 290.925,143.481 290.206,142.875L287.706,145.391C288.245,145.829 288.769,146.204 289.269,146.516C289.776,146.829 290.308,147.086 290.862,147.282C291.413,147.469 292.003,147.61 292.628,147.704C293.261,147.797 293.972,147.844 294.753,147.844C295.628,147.844 296.429,147.704 297.159,147.422C297.886,147.141 298.511,146.766 299.034,146.297C299.566,145.829 299.976,145.293 300.269,144.688C300.569,144.075 300.722,143.422 300.722,142.735C300.722,142.028 300.62,141.391 300.425,140.829C300.226,140.258 299.925,139.747 299.519,139.297C299.112,138.84 298.581,138.422 297.925,138.047C297.276,137.672 296.503,137.325 295.597,137C294.886,136.75 294.292,136.516 293.816,136.297C293.335,136.071 292.948,135.844 292.659,135.625C292.378,135.407 292.175,135.184 292.05,134.954C291.933,134.715 291.878,134.454 291.878,134.172C291.878,133.915 291.941,133.668 292.066,133.438C292.198,133.2 292.37,132.997 292.581,132.829C292.788,132.653 293.038,132.512 293.331,132.407C293.632,132.293 293.956,132.235 294.3,132.235C295.058,132.235 295.714,132.356 296.269,132.594C296.831,132.825 297.339,133.165 297.8,133.61L300.237,131.125C299.495,130.438 298.651,129.915 297.706,129.547C296.757,129.184 295.585,129 294.191,129ZM275.491,129.36L266.929,147.5L270.773,147.5L272.476,143.875L281.273,143.875L282.944,147.5L286.804,147.5L278.241,129.36L275.491,129.36ZM256.335,129.391L256.335,147.5L259.851,147.5L259.851,141.579L262.851,141.579C263.694,141.579 264.491,141.43 265.241,141.125C265.999,140.813 266.655,140.383 267.21,139.829C267.773,139.278 268.214,138.625 268.538,137.875C268.87,137.125 269.038,136.325 269.038,135.469C269.038,134.606 268.87,133.805 268.538,133.063C268.214,132.325 267.773,131.684 267.21,131.141C266.655,130.59 265.999,130.165 265.241,129.86C264.491,129.547 263.694,129.391 262.851,129.391L256.335,129.391ZM259.851,132.032L262.179,132.032C262.648,132.032 263.085,132.125 263.491,132.313C263.905,132.493 264.265,132.731 264.569,133.032C264.87,133.336 265.105,133.696 265.273,134.11C265.448,134.516 265.538,134.954 265.538,135.422C265.538,135.891 265.448,136.336 265.273,136.75C265.105,137.157 264.87,137.524 264.569,137.844C264.265,138.157 263.905,138.415 263.491,138.61C263.085,138.797 262.648,138.891 262.179,138.891L259.851,138.891L259.851,132.032ZM276.882,134.422L279.882,140.954L273.819,140.954L276.882,134.422Z"
   style="fill:rgb(24,114,60);fill-rule:nonzero;"
   id="path1" />
            </g>
            <g
   id="circle13"
   transform="matrix(0.264583,0,0,0.264583,-7.5968,32.109)">
                <path
   d="M92.39,-96.998C92.177,-97.002 91.966,-96.96 91.746,-96.873C83.17,-93.489 66.523,-87.58 66.523,-87.58C63.409,-86.745 63.841,-81.158 68.343,-82.238C71.054,-82.888 82.312,-85.574 82.312,-85.574C82.312,-85.574 82.661,-85.707 82.537,-86.154C81.682,-89.225 85.394,-93.104 89.154,-91.142C92.143,-89.583 99.413,-84.961 99.413,-84.961C99.554,-84.885 99.598,-84.341 99.066,-84.484C97.923,-84.79 88.845,-89.134 88.845,-89.134C85.298,-91.056 82.971,-85.92 86.003,-84.371C87.887,-83.408 101.968,-76.082 101.968,-76.082C101.968,-76.082 106.897,-74.371 112.798,-78.722C117.91,-82.491 117.625,-89.562 114.738,-90.757C113.488,-91.275 109.615,-88.261 106.683,-89.662C103.111,-91.368 94.201,-96.159 93.527,-96.587C93.106,-96.856 92.745,-96.991 92.39,-96.998ZM114.382,-77.023C113.533,-62.134 101.183,-50.336 86.406,-50.298C71.795,-50.336 59.528,-61.87 58.458,-76.576C58.384,-75.886 58.336,-75.195 58.312,-74.502C58.312,-58.947 70.994,-46.148 86.406,-46.148C101.817,-46.148 114.499,-58.947 114.499,-74.502C114.497,-75.343 114.458,-76.185 114.382,-77.023ZM45.81,-27.475C45.81,-26.787 45.657,-26.135 45.356,-25.522C45.063,-24.916 44.653,-24.381 44.122,-23.912C43.599,-23.443 42.974,-23.068 42.247,-22.787C41.517,-22.506 40.716,-22.365 39.841,-22.365C39.06,-22.365 38.349,-22.412 37.716,-22.506C37.091,-22.6 36.501,-22.74 35.95,-22.928C35.395,-23.123 34.864,-23.381 34.356,-23.693C33.856,-24.006 33.333,-24.381 32.794,-24.818L35.294,-27.334C36.013,-26.729 36.72,-26.303 37.419,-26.053C38.114,-25.803 38.872,-25.678 39.685,-25.678C40.017,-25.678 40.329,-25.725 40.622,-25.818C40.923,-25.92 41.185,-26.057 41.403,-26.225C41.622,-26.389 41.794,-26.584 41.919,-26.803C42.044,-27.029 42.106,-27.287 42.106,-27.568C42.106,-27.85 42.052,-28.104 41.95,-28.334C41.845,-28.561 41.657,-28.779 41.388,-28.99C41.114,-29.197 40.735,-29.412 40.247,-29.631C39.767,-29.85 39.145,-30.092 38.388,-30.365C37.731,-30.615 37.095,-30.889 36.481,-31.193C35.864,-31.506 35.329,-31.881 34.872,-32.318C34.411,-32.756 34.044,-33.264 33.763,-33.85C33.481,-34.443 33.341,-35.139 33.341,-35.943C33.341,-36.713 33.489,-37.42 33.794,-38.068C34.106,-38.725 34.528,-39.279 35.06,-39.74C35.599,-40.209 36.231,-40.568 36.95,-40.818C37.669,-41.076 38.442,-41.209 39.278,-41.209C40.673,-41.209 41.845,-41.025 42.794,-40.662C43.739,-40.295 44.583,-39.772 45.325,-39.084L42.888,-36.6C42.427,-37.045 41.919,-37.385 41.356,-37.615C40.802,-37.854 40.145,-37.975 39.388,-37.975C39.044,-37.975 38.72,-37.916 38.419,-37.803C38.126,-37.697 37.876,-37.557 37.669,-37.381C37.458,-37.213 37.286,-37.01 37.153,-36.772C37.028,-36.541 36.966,-36.295 36.966,-36.037C36.966,-35.756 37.02,-35.494 37.138,-35.256C37.263,-35.025 37.466,-34.803 37.747,-34.584C38.036,-34.365 38.423,-34.139 38.903,-33.912C39.38,-33.693 39.974,-33.459 40.685,-33.209C41.591,-32.885 42.364,-32.537 43.013,-32.162C43.669,-31.787 44.2,-31.369 44.606,-30.912C45.013,-30.463 45.313,-29.951 45.513,-29.381C45.708,-28.818 45.81,-28.182 45.81,-27.475ZM63.642,-22.709L59.063,-22.709L51.813,-30.74L51.813,-22.709L48.298,-22.709L48.298,-40.85L51.813,-40.85L51.813,-32.756L59.22,-40.85L63.392,-40.85L55.22,-31.943L63.642,-22.709ZM68.743,-22.709L65.227,-22.709L65.227,-40.818L68.743,-40.818L68.743,-22.709ZM90.235,-22.709L86.782,-22.709L86.782,-34.818L81.079,-25.178L75.595,-34.912L75.595,-22.709L72.142,-22.709L72.142,-40.85L76.11,-40.85L81.142,-31.85L86.407,-40.85L90.235,-40.85L90.235,-22.709Z"
   style="fill:rgb(164,204,56);fill-rule:nonzero;"
   id="path2" />
            </g>
        </g>
    </g>
</svg>
